<svg xmlns="http://www.w3.org/2000/svg" viewBox="0 0 1024 1024"><rect width="1024" height="1024" rx="230" fill="#000000"></rect><circle cx="344" cy="512" r="25" fill="#F3F3F1"></circle><circle cx="400" cy="512" r="25" fill="#F3F3F1"></circle><circle cx="456" cy="512" r="25" fill="#F3F3F1"></circle><circle cx="512" cy="512" r="25" fill="#E10D1C"></circle><circle cx="568" cy="512" r="25" fill="#F3F3F1"></circle><circle cx="624" cy="512" r="25" fill="#F3F3F1"></circle><circle cx="680" cy="512" r="25" fill="#F3F3F1"></circle><circle cx="344" cy="456" r="25" fill="#F3F3F1"></circle><circle cx="344" cy="568" r="25" fill="#F3F3F1"></circle><circle cx="680" cy="456" r="25" fill="#F3F3F1"></circle><circle cx="680" cy="568" r="25" fill="#F3F3F1"></circle><circle cx="288" cy="400" r="25" fill="#F3F3F1"></circle><circle cx="288" cy="456" r="25" fill="#F3F3F1"></circle><circle cx="288" cy="512" r="25" fill="#F3F3F1"></circle><circle cx="288" cy="568" r="25" fill="#F3F3F1"></circle><circle cx="288" cy="624" r="25" fill="#F3F3F1"></circle><circle cx="736" cy="400" r="25" fill="#F3F3F1"></circle><circle cx="736" cy="456" r="25" fill="#F3F3F1"></circle><circle cx="736" cy="512" r="25" fill="#F3F3F1"></circle><circle cx="736" cy="568" r="25" fill="#F3F3F1"></circle><circle cx="736" cy="624" r="25" fill="#F3F3F1"></circle><circle cx="232" cy="344" r="25" fill="#F3F3F1"></circle><circle cx="232" cy="400" r="25" fill="#F3F3F1"></circle><circle cx="232" cy="456" r="25" fill="#F3F3F1"></circle><circle cx="232" cy="512" r="25" fill="#F3F3F1"></circle><circle cx="232" cy="568" r="25" fill="#F3F3F1"></circle><circle cx="232" cy="624" r="25" fill="#F3F3F1"></circle><circle cx="232" cy="680" r="25" fill="#F3F3F1"></circle><circle cx="792" cy="344" r="25" fill="#F3F3F1"></circle><circle cx="792" cy="400" r="25" fill="#F3F3F1"></circle><circle cx="792" cy="456" r="25" fill="#F3F3F1"></circle><circle cx="792" cy="512" r="25" fill="#F3F3F1"></circle><circle cx="792" cy="568" r="25" fill="#F3F3F1"></circle><circle cx="792" cy="624" r="25" fill="#F3F3F1"></circle><circle cx="792" cy="680" r="25" fill="#F3F3F1"></circle></svg>